<svg xmlns="http://www.w3.org/2000/svg" viewBox="0 0 544.99 363.88"><defs><style>.cls-1{font-size:75px;fill:#fff;font-family:CirrusCumulus;}</style></defs><g id="Layer_2" data-name="Layer 2"><g id="Layer_1-2" data-name="Layer 1"><path d="M256.29,327c71-37,121-54.5,169.84-63.19C529.29,248,559,183,539.28,116c0,0-77,25-77,25a34.31,34.31,0,0,1,.95,13,24.77,24.77,0,0,1-17.37,20.17c-38.72,12-77.77,22.91-116.41,35.07-47.2,14.64-85.54,41.55-129.17,64.76-47,25-87-13-87-13l-54,60s48,59,131,38.55c6-1.48,16.47-4.68,22-7.55Z"/><path d="M83.55,196.32C72.29,81,180.05,99.56,246,97.93c41.6-1.75,82.37-7.7,123.44-14,38.62-3.43,79.27,21.64,93.21,57.94,25.54-7.72,51.29-16.7,77-24.79C522.48,61.53,461.27,10,406.29,5c-38.61-7.7-76.3,4.38-114.48,8C232.9,21.45,171.58,11.92,114,28.4,37.66,49.81-17.8,134.46,5.29,213Z"/><path d="M3.29,205s16,79,56,116l54-60s-26-38-30-68"/><text class="cls-1" transform="translate(69.43 194.9) rotate(-96.23)">t</text><text class="cls-1" transform="matrix(0.25, -0.97, 0.97, 0.25, 64.45, 172.44)">a</text><text class="cls-1" transform="matrix(0.55, -0.83, 0.83, 0.55, 75.88, 133.68)">l</text><text class="cls-1" transform="translate(83.03 122.63) rotate(-47.81)">l</text><text class="cls-1" transform="translate(90.26 112.49) rotate(-34.53)">e</text><text class="cls-1" transform="translate(117.73 93.44) rotate(-19.1)">r</text><text class="cls-1" transform="translate(147.65 83.45) rotate(-7.61)"> </text><text class="cls-1" transform="translate(168.34 80.98) rotate(-2.19)">d</text><text class="cls-1" transform="translate(210 79.47) rotate(-2.12)">e</text><text class="cls-1" transform="translate(246.46 78.1) rotate(-3.04)"> </text><text class="cls-1" transform="translate(269.49 77.05) rotate(-4.94)">c</text><text class="cls-1" transform="matrix(0.99, -0.15, 0.15, 0.99, 310.74, 73.45)">o</text><text class="cls-1" transform="matrix(0.99, -0.13, 0.13, 0.99, 347.72, 66.78)">s</text><text class="cls-1" transform="translate(376.44 62.95) rotate(5.87)">t</text><text class="cls-1" transform="translate(400.02 63.56) rotate(22.6)">u</text><text class="cls-1" transform="translate(438.02 79.77) rotate(40.13)">r</text><text class="cls-1" transform="translate(462.25 98.62) rotate(57.04)">a</text><text class="cls-1" transform="translate(78.11 314.59) rotate(29.84)">e</text><text class="cls-1" transform="translate(120.62 336.91) rotate(10.52)">x</text><text class="cls-1" transform="translate(171.11 343.58) rotate(-15.31)">p</text><text class="cls-1" transform="translate(216.26 327.35) rotate(-28.35)">e</text><text class="cls-1" transform="translate(247.97 310.18) rotate(-25.5)">r</text><text class="cls-1" transform="matrix(0.92, -0.39, 0.39, 0.92, 278.23, 295.87)">i</text><text class="cls-1" transform="translate(297.11 287.46) rotate(-19.68)">m</text><text class="cls-1" transform="translate(348.84 269.27) rotate(-17.26)">e</text><text class="cls-1" transform="matrix(0.96, -0.28, 0.28, 0.96, 383.69, 258.49)">n</text><text class="cls-1" transform="matrix(0.96, -0.28, 0.28, 0.96, 421.28, 247.45)">t</text><text class="cls-1" transform="translate(446.82 240.01) rotate(-17.51)">a</text><text class="cls-1" transform="translate(504.46 215.69) rotate(-49.76)">l</text></g></g></svg>